# xmcd CD database file
#
# Track frame offsets:
#	150
#	11875
#	177761
#
# Disc length: 4132 seconds
#
# Revision: 3
# Processed by: cddbd v1.5.2PL0 Copyright (c) Steve Scherf et al.
# Submitted via: CDex 2.14
#
DISCID=1c102203
DTITLE=Tangerine Dream - 1974 - Live at the Rainbow Concert (26th October 1974) [CD 01/02]
DYEAR=2019
DGENRE=Electronic
TTITLE0=Introduction By John Peel
TTITLE1=Rainbow Concert: Part 1
TTITLE2=Rainbow Concert: Part 2
EXTD=YEAR: 2019
EXTT0=
EXTT1=
EXTT2=
PLAYORDER=
